<?xml version="1.0" encoding="utf-8"?>
<!-- Generator: Adobe Illustrator 17.0.0, SVG Export Plug-In . SVG Version: 6.00 Build 0)  -->
<!DOCTYPE svg PUBLIC "-//W3C//DTD SVG 1.1//EN" "http://www.w3.org/Graphics/SVG/1.1/DTD/svg11.dtd">
<svg version="1.1" id="图层_1" xmlns="http://www.w3.org/2000/svg" xmlns:xlink="http://www.w3.org/1999/xlink" x="0px" y="0px"
	 width="32px" height="32px" viewBox="0 0 200 200" enable-background="new 0 0 200 200" xml:space="preserve">
<path fill-rule="evenodd" clip-rule="evenodd" fill="#EDCB91" d="M100.555,5.005C47.779,5.005,5,47.786,5,100.56
	c0,52.774,42.78,95.557,95.555,95.557c52.775,0,95.555-42.784,95.555-95.557C196.111,47.786,153.331,5.005,100.555,5.005
	L100.555,5.005"/>
<path fill-rule="evenodd" clip-rule="evenodd" fill="#B78B3F" d="M41.383,59.871h22.948c-1.911-1.911-5.103-4.782-9.563-8.606
	c-1.597-1.271-2.71-2.227-3.344-2.868l11.474-2.87c7.648,6.06,13.221,10.685,16.733,13.867l-0.959,0.478h10.041V44.093h13.389
	v15.778h9.563l-0.956-0.478c5.416-3.826,11.153-8.441,17.211-13.867l11.474,2.87c-3.822,3.824-8.29,7.65-13.385,11.474h23.43v21.517
	h-12.911V68.954H53.813v12.433h-12.43L41.383,59.871L41.383,59.871"/>
<polyline fill-rule="evenodd" clip-rule="evenodd" fill="#B78B3F" points="63.376,117.724 63.376,137.806 50.465,137.806 
	50.465,108.639 140.832,108.639 140.832,136.851 128.399,136.851 128.399,117.724 63.376,117.724 63.376,117.724 "/>
<path fill-rule="evenodd" clip-rule="evenodd" fill="#B78B3F" d="M144.177,157.888c-21.358-8.294-37.614-13.867-48.767-16.734
	c-7.018,8.604-24.385,14.341-52.115,17.211c-1.277-3.826-2.87-7.652-4.782-11.474c35.381-1.601,52.428-9.72,51.159-24.385h12.908
	c-0.321,3.513-1.12,6.693-2.389,9.563c5.737,1.597,14.176,4.3,25.341,8.126c10.832,3.192,18.958,5.573,24.385,7.174L144.177,157.888
	L144.177,157.888"/>
<path fill-rule="evenodd" clip-rule="evenodd" fill="#EDCB91" d="M144.177,157.888"/>
<path fill-rule="evenodd" clip-rule="evenodd" fill="#B78B3F" d="M57.635,76.128v25.819h75.067V76.128H57.635z M120.273,93.339
	H70.546v-9.083h49.726V93.339z"/>
<path fill-rule="evenodd" clip-rule="evenodd" fill="#FF6D6D" d="M70.546,84.256"/>
</svg>
